<svg id="svg" version="1.1" xmlns="http://www.w3.org/2000/svg" xmlns:xlink="http://www.w3.org/1999/xlink" width="400" height="56.92520775623269" viewBox="0, 0, 400,56.92520775623269"><g id="svgg"><path id="path0" d="M24.583 0.845 C 24.033 0.920,22.990 1.135,22.265 1.324 C 21.540 1.512,20.809 1.667,20.642 1.667 C 19.878 1.667,14.983 3.789,13.583 4.727 C 13.308 4.911,12.880 5.198,12.632 5.364 C 12.383 5.531,12.115 5.667,12.036 5.667 C 11.956 5.667,11.715 5.854,11.500 6.083 C 11.285 6.313,11.054 6.500,10.987 6.500 C 10.661 6.500,7.017 10.011,6.167 11.144 C 5.938 11.450,5.581 11.909,5.375 12.165 C 5.169 12.422,5.000 12.708,5.000 12.802 C 5.000 12.896,4.933 12.997,4.851 13.028 C 4.511 13.154,1.667 18.531,1.667 19.048 C 1.667 19.159,1.506 19.662,1.309 20.167 C 1.112 20.671,0.894 21.383,0.825 21.750 C 0.755 22.117,0.536 23.204,0.338 24.167 C -0.677 29.087,0.461 36.935,2.778 41.000 C 2.909 41.229,3.162 41.740,3.340 42.135 C 3.518 42.531,3.777 42.967,3.915 43.106 C 4.054 43.244,4.167 43.419,4.167 43.495 C 4.167 43.668,5.224 45.247,5.573 45.597 C 5.716 45.740,5.833 45.926,5.833 46.011 C 5.833 46.326,10.815 51.167,11.140 51.167 C 11.237 51.167,11.377 51.267,11.450 51.390 C 11.523 51.513,12.000 51.869,12.510 52.182 C 13.019 52.494,13.582 52.843,13.760 52.957 C 14.075 53.159,16.248 54.226,17.583 54.835 C 18.333 55.176,20.654 55.925,21.417 56.071 C 21.692 56.124,22.667 56.317,23.583 56.500 C 25.602 56.904,30.525 56.955,32.417 56.592 C 34.599 56.173,36.596 55.695,37.174 55.452 C 37.491 55.319,37.975 55.132,38.250 55.036 C 39.160 54.720,40.639 54.064,40.864 53.877 C 40.985 53.777,41.197 53.669,41.334 53.639 C 41.471 53.608,41.822 53.415,42.114 53.208 C 42.406 53.002,42.694 52.833,42.755 52.833 C 42.966 52.833,45.000 51.453,45.000 51.310 C 45.000 51.231,45.084 51.167,45.186 51.167 C 45.599 51.167,49.122 47.793,50.363 46.210 C 51.506 44.751,51.656 44.538,51.853 44.108 C 51.963 43.865,52.099 43.667,52.155 43.667 C 52.256 43.667,53.886 40.482,54.405 39.270 C 54.919 38.070,55.622 35.594,56.020 33.583 L 56.417 31.583 56.417 16.167 L 56.417 0.750 41.000 0.729 C 32.521 0.718,25.133 0.770,24.583 0.845 M67.667 21.922 L 67.667 42.178 78.375 42.131 L 89.083 42.083 90.750 41.610 C 91.667 41.350,92.492 41.079,92.583 41.009 C 92.675 40.939,92.983 40.803,93.269 40.708 C 94.304 40.360,97.500 37.972,97.500 37.546 C 97.500 37.429,97.573 37.333,97.662 37.333 C 97.824 37.333,98.953 35.671,99.124 35.180 C 99.175 35.035,99.364 34.582,99.545 34.172 C 101.281 30.249,99.718 23.911,96.538 21.978 C 96.196 21.771,95.879 21.555,95.833 21.499 C 95.636 21.258,93.527 20.370,92.938 20.280 C 92.056 20.145,92.071 19.528,92.956 19.505 C 93.847 19.482,96.043 16.886,96.943 14.792 C 97.448 13.617,97.702 10.136,97.366 8.997 C 96.578 6.330,95.789 5.236,93.560 3.724 C 93.244 3.509,92.911 3.333,92.819 3.333 C 92.728 3.333,92.356 3.182,91.992 2.996 C 90.008 1.984,86.150 1.672,75.542 1.669 L 67.667 1.667 67.667 21.922 M31.750 6.414 C 32.758 6.548,34.013 6.810,34.538 6.996 C 35.062 7.181,35.609 7.333,35.753 7.333 C 35.985 7.333,39.553 9.033,40.417 9.554 C 41.425 10.164,42.667 11.066,42.667 11.190 C 42.667 11.269,42.758 11.333,42.869 11.333 C 42.980 11.333,43.261 11.525,43.494 11.760 C 43.726 11.995,44.159 12.426,44.455 12.718 C 47.743 15.966,50.484 21.012,50.901 24.583 C 50.954 25.042,51.073 25.867,51.165 26.417 C 51.823 30.362,50.163 37.594,47.907 40.610 C 47.781 40.778,47.232 41.517,46.687 42.250 C 45.574 43.749,43.987 45.500,43.742 45.500 C 43.653 45.500,43.498 45.631,43.397 45.792 C 43.296 45.952,42.771 46.379,42.232 46.740 C 41.692 47.101,41.173 47.476,41.079 47.573 C 40.621 48.048,35.909 50.330,35.371 50.337 C 35.213 50.340,34.633 50.494,34.083 50.681 C 33.168 50.991,32.212 51.133,29.167 51.412 C 27.690 51.547,23.485 51.104,22.250 50.682 C 21.700 50.495,21.133 50.340,20.990 50.337 C 20.846 50.335,20.340 50.146,19.865 49.917 C 19.390 49.688,18.932 49.500,18.848 49.500 C 18.393 49.500,14.460 47.147,14.021 46.612 C 13.895 46.459,13.717 46.333,13.624 46.333 C 13.531 46.333,13.287 46.165,13.081 45.958 C 12.875 45.752,12.454 45.354,12.145 45.074 C 11.399 44.398,10.037 42.801,9.238 41.667 C 8.883 41.162,8.549 40.712,8.496 40.667 C 8.411 40.594,8.223 40.247,7.530 38.887 C 5.874 35.638,5.085 32.394,5.084 28.833 C 5.083 24.914,5.977 21.540,8.055 17.619 C 8.316 17.127,9.346 15.639,9.617 15.363 C 9.736 15.242,9.833 15.083,9.833 15.011 C 9.833 14.864,13.304 11.333,13.448 11.333 C 13.498 11.333,13.790 11.127,14.097 10.875 C 15.142 10.016,15.636 9.667,15.806 9.667 C 15.900 9.667,16.078 9.565,16.202 9.441 C 16.429 9.213,19.162 7.875,20.083 7.540 C 23.593 6.263,27.670 5.870,31.750 6.414 M83.990 9.681 C 85.946 10.011,86.889 11.252,86.889 13.497 C 86.889 16.603,85.273 17.667,80.555 17.667 L 78.000 17.667 78.000 13.501 L 78.000 9.336 80.542 9.432 C 81.940 9.484,83.491 9.596,83.990 9.681 M116.250 10.844 C 115.608 10.931,114.866 11.077,114.600 11.168 C 114.334 11.259,113.959 11.334,113.767 11.334 C 113.013 11.336,109.671 12.834,108.965 13.487 C 108.809 13.632,108.390 13.974,108.035 14.249 C 103.090 18.072,101.485 28.599,104.795 35.500 C 105.036 36.004,105.283 36.454,105.342 36.500 C 105.402 36.546,105.657 36.921,105.911 37.333 C 110.376 44.606,124.965 45.333,130.912 38.580 C 132.583 36.684,133.424 34.960,134.326 31.583 C 134.946 29.265,134.669 23.245,133.824 20.681 C 133.197 18.777,131.841 16.167,131.478 16.167 C 131.393 16.167,131.280 16.054,131.227 15.917 C 131.114 15.622,129.352 13.833,129.174 13.833 C 129.107 13.833,128.910 13.677,128.738 13.486 C 128.565 13.295,128.197 13.037,127.920 12.912 C 127.643 12.787,127.229 12.575,127.000 12.441 C 124.839 11.176,119.570 10.393,116.250 10.844 M155.917 11.159 C 154.106 11.579,152.628 12.339,150.417 13.989 C 149.078 14.987,149.167 15.039,149.167 13.256 L 149.167 11.667 144.333 11.667 L 139.500 11.667 139.500 26.917 L 139.500 42.167 144.333 42.167 L 149.167 42.167 149.167 31.526 C 149.167 20.252,149.161 20.333,149.892 20.333 C 149.955 20.333,150.287 20.155,150.629 19.936 C 152.162 18.956,154.846 18.737,156.357 19.470 C 158.290 20.408,158.491 21.775,158.496 34.042 L 158.500 42.167 163.417 42.167 L 168.333 42.167 168.333 32.551 C 168.333 19.274,168.151 17.491,166.522 14.844 C 164.533 11.610,160.303 10.140,155.917 11.159 M191.458 11.151 C 189.532 11.613,186.976 12.973,185.555 14.292 C 184.913 14.888,184.833 14.764,184.833 13.167 L 184.833 11.667 179.917 11.667 L 175.000 11.667 175.000 26.917 L 175.000 42.167 179.917 42.167 L 184.833 42.167 184.833 31.488 C 184.833 22.946,184.877 20.770,185.050 20.613 C 187.537 18.355,192.877 18.652,193.421 21.079 C 193.463 21.265,193.585 21.754,193.693 22.167 C 193.829 22.684,193.909 25.899,193.954 32.542 L 194.020 42.167 198.927 42.167 L 203.833 42.167 203.831 31.458 C 203.829 17.256,203.656 16.215,200.826 13.342 C 198.714 11.198,194.939 10.315,191.458 11.151 M206.837 11.708 C 206.844 11.792,208.249 15.590,209.103 17.833 C 209.528 18.952,209.847 19.802,210.540 21.667 C 210.762 22.262,211.068 22.990,211.222 23.283 C 211.375 23.577,211.500 23.937,211.500 24.084 C 211.500 24.231,211.643 24.666,211.818 25.051 C 211.993 25.435,212.283 26.162,212.464 26.667 C 213.067 28.354,213.219 28.745,213.610 29.630 C 213.825 30.113,214.000 30.610,214.000 30.733 C 214.000 30.857,214.166 31.323,214.369 31.770 C 214.572 32.218,214.827 32.883,214.936 33.250 C 215.201 34.141,215.625 35.295,215.932 35.959 C 216.070 36.258,216.286 36.820,216.411 37.209 C 216.536 37.598,216.876 38.517,217.166 39.250 C 218.082 41.563,218.075 41.520,217.702 42.344 C 217.519 42.751,217.126 43.721,216.830 44.500 C 216.534 45.279,216.184 46.163,216.052 46.463 C 215.921 46.764,215.676 47.401,215.508 47.880 C 215.341 48.358,214.999 49.275,214.748 49.917 C 214.498 50.558,214.189 51.383,214.062 51.750 C 213.935 52.117,213.756 52.547,213.665 52.706 C 213.206 53.510,213.144 53.500,218.664 53.500 L 223.829 53.500 224.097 52.875 C 224.371 52.236,224.776 51.129,225.333 49.500 C 225.633 48.621,225.849 48.039,226.969 45.083 C 227.247 44.350,227.565 43.487,227.676 43.167 C 227.787 42.846,228.044 42.171,228.248 41.667 C 228.452 41.162,228.748 40.375,228.906 39.917 C 229.063 39.458,229.376 38.596,229.602 38.000 C 229.976 37.012,230.457 35.704,231.011 34.167 C 231.127 33.846,231.359 33.265,231.528 32.877 C 231.696 32.488,231.833 32.089,231.833 31.990 C 231.833 31.891,232.048 31.272,232.311 30.613 C 232.573 29.955,232.995 28.854,233.249 28.167 C 233.502 27.479,233.877 26.467,234.082 25.917 C 234.286 25.367,234.547 24.654,234.660 24.333 C 234.773 24.012,235.049 23.262,235.274 22.667 C 235.498 22.071,235.826 21.166,236.002 20.656 C 236.177 20.146,236.436 19.508,236.576 19.239 C 236.716 18.970,236.832 18.633,236.832 18.490 C 236.833 18.346,237.021 17.840,237.250 17.365 C 237.479 16.890,237.667 16.395,237.667 16.265 C 237.667 16.134,237.822 15.665,238.012 15.222 C 238.202 14.779,238.508 13.967,238.692 13.417 C 238.876 12.867,239.095 12.345,239.180 12.258 C 239.716 11.705,239.403 11.667,234.339 11.667 C 228.628 11.667,229.248 11.473,228.684 13.433 C 228.128 15.366,226.977 19.036,226.650 19.917 C 226.480 20.375,226.303 20.982,226.256 21.266 C 226.209 21.550,226.046 22.075,225.894 22.433 C 225.741 22.791,225.561 23.346,225.492 23.667 C 225.424 23.988,225.211 24.700,225.019 25.250 C 224.827 25.800,224.395 27.141,224.058 28.231 C 223.467 30.141,223.000 30.620,223.000 29.315 C 223.000 29.157,222.848 28.673,222.662 28.239 C 222.476 27.805,222.258 27.180,222.178 26.850 C 222.098 26.520,221.861 25.762,221.653 25.167 C 221.444 24.571,221.109 23.596,220.908 23.000 C 220.707 22.404,220.410 21.542,220.249 21.083 C 220.088 20.625,219.859 19.912,219.741 19.500 C 219.509 18.696,219.000 17.198,218.411 15.583 C 217.789 13.882,217.470 12.942,217.295 12.292 L 217.126 11.667 211.980 11.667 C 209.149 11.667,206.835 11.685,206.837 11.708 M121.196 18.249 C 122.661 18.985,123.377 19.911,124.096 22.000 C 124.728 23.838,124.848 30.271,124.276 31.667 C 124.107 32.079,123.929 32.623,123.882 32.875 C 123.834 33.127,123.738 33.333,123.668 33.333 C 123.598 33.333,123.447 33.559,123.332 33.835 C 122.365 36.171,117.645 36.914,115.459 35.074 C 112.503 32.587,112.138 23.290,114.854 19.667 C 116.205 17.864,119.128 17.210,121.196 18.249 M85.175 25.021 C 88.453 25.462,89.872 27.358,89.414 30.687 C 89.272 31.718,88.322 33.333,87.857 33.333 C 87.752 33.333,87.667 33.392,87.667 33.463 C 87.667 33.634,86.844 33.971,85.500 34.351 C 84.622 34.600,83.809 34.659,81.208 34.662 L 78.000 34.667 78.000 29.750 L 78.000 24.833 80.890 24.833 C 82.480 24.833,84.408 24.918,85.175 25.021 " stroke="none" fill="#fcfcfc" fill-rule="evenodd"></path><path id="path1" d="M260.667 6.333 C 260.667 9.817,260.622 12.667,260.567 12.667 C 260.513 12.667,260.269 12.564,260.026 12.438 C 256.441 10.583,251.899 10.305,248.914 11.759 C 248.454 11.983,248.011 12.167,247.930 12.167 C 247.848 12.167,247.536 12.354,247.235 12.583 C 246.935 12.813,246.628 13.001,246.553 13.001 C 246.344 13.003,244.333 14.942,244.333 15.141 C 244.333 15.238,244.237 15.377,244.120 15.450 C 243.841 15.624,242.667 17.284,242.667 17.504 C 242.667 17.597,242.479 17.970,242.250 18.333 C 242.021 18.696,241.833 19.049,241.833 19.118 C 241.833 19.186,241.653 19.731,241.432 20.329 C 239.366 25.923,240.357 34.607,243.562 39.000 C 244.452 40.219,246.631 42.167,247.105 42.167 C 247.170 42.167,247.713 42.363,248.312 42.602 C 249.307 43.000,249.608 43.038,251.851 43.045 C 254.171 43.053,254.599 42.992,255.750 42.487 C 255.933 42.406,256.284 42.268,256.530 42.179 C 256.973 42.019,259.328 40.514,260.208 39.829 L 260.667 39.472 260.667 40.819 L 260.667 42.167 265.583 42.167 L 270.500 42.167 270.500 21.083 L 270.500 0.000 265.583 0.000 L 260.667 0.000 260.667 6.333 M277.167 3.750 L 277.167 7.500 282.333 7.500 L 287.500 7.500 287.500 3.750 L 287.500 0.000 282.333 0.000 L 277.167 0.000 277.167 3.750 M381.167 7.333 L 381.167 11.667 379.333 11.667 L 377.500 11.667 377.500 15.083 L 377.500 18.500 379.326 18.500 L 381.153 18.500 381.207 27.125 L 381.261 35.750 381.717 37.083 C 381.968 37.817,382.308 38.604,382.473 38.833 C 382.638 39.063,382.817 39.370,382.871 39.516 C 383.847 42.146,391.752 43.759,397.610 42.524 C 398.541 42.327,399.459 42.167,399.651 42.167 C 399.994 42.167,400.000 42.109,400.000 38.583 L 400.000 35.000 399.575 35.000 C 399.341 35.000,398.932 35.113,398.665 35.251 C 396.012 36.623,392.417 36.042,391.424 34.081 L 391.000 33.245 391.000 25.873 L 391.000 18.500 395.500 18.500 L 400.000 18.500 400.000 15.083 L 400.000 11.667 395.500 11.667 L 391.000 11.667 391.000 7.333 L 391.000 3.000 386.083 3.000 L 381.167 3.000 381.167 7.333 M330.583 10.764 C 326.772 11.300,323.388 12.447,322.383 13.542 C 322.235 13.702,322.038 13.833,321.945 13.833 C 321.336 13.833,318.596 17.243,317.739 19.067 C 315.338 24.176,315.791 33.367,318.598 36.513 C 318.728 36.658,318.833 36.847,318.833 36.934 C 318.833 37.021,318.965 37.214,319.125 37.363 C 319.285 37.512,319.731 37.960,320.115 38.359 C 321.137 39.418,321.609 39.833,321.795 39.833 C 321.885 39.833,322.052 39.945,322.164 40.081 C 322.376 40.336,324.123 41.333,324.358 41.333 C 324.431 41.333,324.900 41.521,325.401 41.750 C 325.902 41.979,326.412 42.167,326.535 42.167 C 326.657 42.167,327.497 42.354,328.400 42.583 C 329.932 42.972,330.313 43.000,334.063 42.994 C 337.999 42.988,338.302 42.960,340.917 42.344 C 342.085 42.069,344.255 41.375,345.289 40.945 L 346.161 40.583 346.164 36.542 L 346.167 32.500 345.522 32.500 C 345.108 32.500,344.709 32.633,344.404 32.873 C 342.788 34.144,339.883 35.357,337.500 35.757 C 331.321 36.792,326.602 34.397,326.075 29.958 L 325.962 29.000 336.333 29.000 L 346.704 29.000 346.623 25.458 C 346.556 22.495,346.485 21.720,346.188 20.710 C 345.993 20.047,345.833 19.394,345.833 19.260 C 345.833 17.535,341.353 12.167,339.913 12.167 C 339.835 12.167,339.467 12.021,339.094 11.842 C 337.557 11.105,332.611 10.479,330.583 10.764 M363.417 11.006 C 362.958 11.079,362.029 11.221,361.351 11.322 C 360.673 11.423,359.783 11.654,359.372 11.836 C 358.961 12.018,358.520 12.167,358.392 12.167 C 357.106 12.167,352.594 15.706,351.587 17.504 C 349.530 21.181,349.250 22.327,349.250 27.083 C 349.250 30.779,349.266 30.970,349.702 32.386 C 350.267 34.226,351.409 36.604,352.066 37.308 C 355.246 40.716,356.972 41.688,361.750 42.763 C 363.657 43.192,369.516 43.081,371.234 42.583 C 372.025 42.354,372.781 42.167,372.915 42.167 C 373.135 42.167,373.982 41.815,375.667 41.023 L 376.250 40.750 376.295 36.625 L 376.339 32.500 375.532 32.500 C 374.876 32.500,374.649 32.582,374.321 32.935 C 371.120 36.378,364.725 37.045,361.692 34.251 C 357.430 30.323,358.482 20.797,363.422 18.592 C 366.630 17.159,371.045 18.156,374.136 21.009 C 374.743 21.570,374.957 21.667,375.591 21.667 L 376.333 21.667 376.333 17.420 L 376.333 13.173 375.875 13.060 C 375.623 12.998,375.267 12.851,375.083 12.733 C 373.109 11.461,366.618 10.501,363.417 11.006 M26.302 11.498 C 25.688 11.575,24.777 11.756,24.276 11.902 C 23.775 12.048,23.236 12.167,23.079 12.167 C 22.500 12.167,19.897 13.386,18.203 14.451 C 17.595 14.833,15.900 16.278,15.212 17.000 C 14.907 17.321,14.509 17.736,14.328 17.923 C 14.148 18.109,14.000 18.347,14.000 18.450 C 14.000 18.554,13.938 18.664,13.861 18.694 C 13.785 18.725,13.461 19.162,13.142 19.667 C 9.416 25.550,9.843 33.984,14.137 39.333 C 17.687 43.755,22.611 46.093,28.333 46.071 C 29.894 46.065,30.907 45.977,31.638 45.781 C 32.219 45.627,32.806 45.500,32.943 45.500 C 33.717 45.500,36.721 44.076,38.500 42.866 C 45.311 38.233,47.856 28.489,44.139 21.279 C 44.052 21.112,43.821 20.662,43.625 20.279 C 43.429 19.897,43.222 19.546,43.165 19.500 C 43.108 19.454,42.807 19.043,42.496 18.587 C 41.999 17.856,40.274 16.042,39.403 15.333 C 38.733 14.788,37.310 13.833,37.167 13.833 C 37.083 13.833,36.739 13.646,36.401 13.417 C 36.063 13.188,35.699 13.000,35.591 13.000 C 35.484 13.000,35.094 12.854,34.724 12.676 C 32.957 11.822,28.595 11.212,26.302 11.498 M311.583 11.616 C 310.561 11.854,309.016 12.389,308.535 12.673 C 308.230 12.853,307.916 13.000,307.836 13.000 C 307.617 13.000,305.667 14.377,305.667 14.532 C 305.667 14.606,305.571 14.667,305.454 14.667 C 305.337 14.667,305.122 14.798,304.978 14.958 C 304.833 15.119,304.554 15.381,304.357 15.540 L 304.000 15.830 304.000 13.748 L 304.000 11.667 299.167 11.667 L 294.333 11.667 294.333 26.917 L 294.333 42.167 299.167 42.167 L 304.000 42.167 304.000 32.110 L 304.000 22.053 305.125 21.616 C 307.968 20.513,309.932 20.322,313.875 20.767 L 314.833 20.875 314.833 16.291 L 314.833 11.708 314.313 11.604 C 313.735 11.489,312.102 11.496,311.583 11.616 M277.500 26.917 L 277.500 42.167 282.333 42.167 L 287.167 42.167 287.167 26.917 L 287.167 11.667 282.333 11.667 L 277.500 11.667 277.500 26.917 M334.000 17.505 C 335.624 18.186,336.696 19.800,336.899 21.875 L 337.009 23.000 331.403 23.000 C 326.721 23.000,325.812 22.962,325.885 22.771 C 325.934 22.646,326.025 22.177,326.089 21.730 C 326.590 18.221,330.598 16.081,334.000 17.505 M259.460 18.596 L 260.670 18.870 260.627 26.375 C 260.585 33.635,260.573 33.886,260.256 34.065 C 260.076 34.167,259.664 34.406,259.340 34.598 C 255.591 36.808,251.622 35.093,250.714 30.872 C 248.906 22.458,252.742 17.073,259.460 18.596 M29.417 24.215 C 33.471 25.195,34.270 30.434,30.724 32.789 C 29.387 33.677,27.085 33.717,25.750 32.874 C 21.024 29.892,23.983 22.903,29.417 24.215 M113.048 27.083 C 113.049 27.542,113.081 27.709,113.120 27.456 C 113.158 27.203,113.157 26.828,113.117 26.623 C 113.078 26.418,113.046 26.625,113.048 27.083 " stroke="none" fill="#fc6c3c" fill-rule="evenodd"></path><path id="path2" d="" stroke="none" fill="#fc100cc" fill-rule="evenodd"></path><path id="path3" d="" stroke="none" fill="#fc100cc" fill-rule="evenodd"></path><path id="path4" d="" stroke="none" fill="#fc100cc" fill-rule="evenodd"></path></g></svg>